<mxfile host="app.diagrams.net" modified="2022-05-09T18:12:09.301Z" agent="5.0 (Windows NT 10.0; Win64; x64) AppleWebKit/537.36 (KHTML, like Gecko) Chrome/101.0.4951.54 Safari/537.36" etag="MMNluCQhiqJNuNmbI4sn" version="17.4.5" type="github">
  <diagram id="C5RBs43oDa-KdzZeNtuy" name="Page-1">
    <mxGraphModel dx="2249" dy="698" grid="1" gridSize="10" guides="1" tooltips="1" connect="1" arrows="1" fold="1" page="1" pageScale="1" pageWidth="827" pageHeight="1169" math="0" shadow="0">
      <root>
        <mxCell id="WIyWlLk6GJQsqaUBKTNV-0" />
        <mxCell id="WIyWlLk6GJQsqaUBKTNV-1" parent="WIyWlLk6GJQsqaUBKTNV-0" />
        <mxCell id="WIyWlLk6GJQsqaUBKTNV-11" value="结束" style="rounded=1;whiteSpace=wrap;html=1;fontSize=12;glass=0;strokeWidth=1;shadow=0;arcSize=38;" parent="WIyWlLk6GJQsqaUBKTNV-1" vertex="1">
          <mxGeometry x="550" y="180" width="120" height="40" as="geometry" />
        </mxCell>
        <mxCell id="dCGP8nxiyUkQ06hMZDDs-1" value="" style="edgeStyle=orthogonalEdgeStyle;rounded=0;orthogonalLoop=1;jettySize=auto;html=1;" edge="1" parent="WIyWlLk6GJQsqaUBKTNV-1" source="aN0HAKZT7_u-cwa_-y7R-0" target="dCGP8nxiyUkQ06hMZDDs-0">
          <mxGeometry relative="1" as="geometry" />
        </mxCell>
        <mxCell id="aN0HAKZT7_u-cwa_-y7R-0" value="主持人绘制的内容&lt;br&gt;或展示的文件" style="shape=parallelogram;html=1;strokeWidth=1;perimeter=parallelogramPerimeter;whiteSpace=wrap;rounded=1;arcSize=0;size=0.23;" parent="WIyWlLk6GJQsqaUBKTNV-1" vertex="1">
          <mxGeometry x="50" y="180" width="175" height="40" as="geometry" />
        </mxCell>
        <mxCell id="CnHfPYrkxCYlb2chDG_t-17" style="edgeStyle=orthogonalEdgeStyle;rounded=0;orthogonalLoop=1;jettySize=auto;html=1;exitX=1;exitY=0.5;exitDx=0;exitDy=0;" parent="WIyWlLk6GJQsqaUBKTNV-1" source="JZTR_e5X0-ycpCvXNEsE-13" target="aN0HAKZT7_u-cwa_-y7R-0" edge="1">
          <mxGeometry relative="1" as="geometry" />
        </mxCell>
        <mxCell id="JZTR_e5X0-ycpCvXNEsE-13" value="开始" style="rounded=1;whiteSpace=wrap;html=1;fontSize=12;glass=0;strokeWidth=1;shadow=0;arcSize=38;" parent="WIyWlLk6GJQsqaUBKTNV-1" vertex="1">
          <mxGeometry x="-100" y="180" width="120" height="40" as="geometry" />
        </mxCell>
        <mxCell id="CnHfPYrkxCYlb2chDG_t-21" style="edgeStyle=orthogonalEdgeStyle;rounded=0;orthogonalLoop=1;jettySize=auto;html=1;exitX=1;exitY=0.5;exitDx=0;exitDy=0;entryX=0;entryY=0.5;entryDx=0;entryDy=0;" parent="WIyWlLk6GJQsqaUBKTNV-1" target="WIyWlLk6GJQsqaUBKTNV-11" edge="1">
          <mxGeometry relative="1" as="geometry">
            <mxPoint x="520" y="200" as="sourcePoint" />
          </mxGeometry>
        </mxCell>
        <mxCell id="dCGP8nxiyUkQ06hMZDDs-3" value="" style="edgeStyle=orthogonalEdgeStyle;rounded=0;orthogonalLoop=1;jettySize=auto;html=1;" edge="1" parent="WIyWlLk6GJQsqaUBKTNV-1" source="dCGP8nxiyUkQ06hMZDDs-0" target="dCGP8nxiyUkQ06hMZDDs-2">
          <mxGeometry relative="1" as="geometry" />
        </mxCell>
        <mxCell id="dCGP8nxiyUkQ06hMZDDs-0" value="将绘制的内容发送给服务器" style="whiteSpace=wrap;html=1;strokeWidth=1;rounded=1;arcSize=0;" vertex="1" parent="WIyWlLk6GJQsqaUBKTNV-1">
          <mxGeometry x="250" y="170" width="120" height="60" as="geometry" />
        </mxCell>
        <mxCell id="dCGP8nxiyUkQ06hMZDDs-2" value="服务器将内容发送给其他用户" style="whiteSpace=wrap;html=1;strokeWidth=1;rounded=1;arcSize=0;" vertex="1" parent="WIyWlLk6GJQsqaUBKTNV-1">
          <mxGeometry x="400" y="170" width="120" height="60" as="geometry" />
        </mxCell>
      </root>
    </mxGraphModel>
  </diagram>
</mxfile>
